<?xml version="1.0"?>
<svg width="50" height="50" xmlns="http://www.w3.org/2000/svg" xmlns:svg="http://www.w3.org/2000/svg">
 <g class="layer">
  <title>Layer 1</title>
  <path d="m25,3c-12.14,0 -22,9.86 -22,22c0,11.02 8.13,20.14 18.71,21.73l1.15,0.17l0,-17.33l-5.2,0l0,-3.52l5.2,0l0,-4.68c0,-2.88 0.69,-4.77 1.84,-5.96c1.14,-1.19 2.83,-1.79 5.18,-1.79c1.88,0 2.61,0.11 3.31,0.2l0,2.88l-2.45,0c-1.39,0 -2.53,0.78 -3.12,1.81c-0.59,1.03 -0.78,2.26 -0.78,3.52l0,4.01l6.13,0l-0.55,3.52l-5.58,0l0,17.37l1.14,-0.15c10.73,-1.46 19.02,-10.65 19.02,-21.78c0,-12.14 -9.86,-22 -22,-22zm0,2c11.06,0 20,8.94 20,20c0,9.73 -6.96,17.73 -16.16,19.53l0,-12.97l5.3,0l1.16,-7.52l-6.46,0l0,-2.01c0,-1.04 0.19,-1.97 0.51,-2.53c0.32,-0.56 0.63,-0.8 1.39,-0.8l4.45,0l0,-6.69l-0.87,-0.12c-0.6,-0.08 -1.97,-0.27 -4.44,-0.27c-2.7,0 -5.02,0.74 -6.63,2.4c-1.6,1.67 -2.39,4.15 -2.39,7.35l0,2.68l-5.2,0l0,7.52l5.2,0l0,12.9c-9.04,-1.92 -15.86,-9.85 -15.86,-19.47c0,-11.06 8.94,-20 20,-20z" id="svg_1"/>
 </g>
</svg>